<svg width="1024" height="256" viewBox="0 0 1024 256" fill="none" xmlns="http://www.w3.org/2000/svg">
<rect width="1024" height="256" fill="#DC4B3A"/>
<g clip-path="url(#clip0_228_38)">
<path d="M442.714 120.651C473.239 84.4975 505.31 78.4383 538.928 102.473C573.286 127.383 585.993 147.379 577.051 162.459C567.47 176.799 549.921 184.07 524.405 184.272C499.124 185.08 467.053 195.381 428.191 215.174C422.139 217.598 418.509 216.992 417.298 213.357C404.255 188.177 412.726 157.275 442.714 120.651Z" stroke="white" stroke-width="0.499993"/>
<path d="M443.384 119.682C472.308 82.2313 504.087 74.7757 538.72 97.3158C574.13 120.698 587.696 140.117 579.418 155.573C570.469 170.318 553.253 178.349 527.769 179.667C502.547 181.579 470.952 193.272 432.986 214.744C427.046 217.43 423.392 216.984 422.025 213.405C407.898 188.822 415.017 157.581 443.384 119.682Z" stroke="white" stroke-width="0.499993"/>
<path d="M444.235 118.68C471.503 80.0024 502.929 71.1649 538.511 92.1678C574.906 113.978 589.305 132.784 581.707 148.587C573.408 163.708 556.557 172.483 531.153 174.914C506.037 177.927 474.98 190.99 437.984 214.1C432.166 217.043 428.496 216.757 426.974 213.242C411.79 189.301 417.543 157.781 444.235 118.68Z" stroke="white" stroke-width="0.499993"/>
<path d="M445.265 117.636C470.826 77.8053 501.838 67.6028 538.301 87.029C575.612 107.226 590.816 125.384 583.913 141.503C576.279 156.971 559.826 166.475 534.551 170.013C509.589 174.122 479.13 188.529 443.172 213.234C437.488 216.428 433.809 216.303 432.135 212.857C415.923 189.605 420.3 157.864 445.265 117.636Z" stroke="white" stroke-width="0.499993"/>
<path d="M446.473 116.543C470.276 75.634 500.815 64.0861 538.091 81.8991C576.247 100.445 592.227 117.92 586.032 134.325C579.079 150.111 563.054 160.325 537.957 164.965C513.197 170.16 483.392 185.884 448.543 212.136C443.003 215.576 439.322 215.611 437.5 212.242C420.291 189.722 423.282 157.822 446.473 116.543Z" stroke="white" stroke-width="0.499993"/>
<path d="M447.856 115.392C469.856 73.4834 499.865 60.6123 537.881 76.7785C576.809 93.6386 593.535 110.398 588.06 127.057C581.801 143.132 566.235 154.036 541.363 159.768C516.852 166.04 487.76 183.051 454.086 210.8C448.701 214.479 445.024 214.675 443.058 211.389C424.884 189.643 426.483 157.644 447.856 115.392Z" stroke="white" stroke-width="0.499993"/>
<path d="M449.412 114.176C469.566 71.3474 498.986 57.1778 537.672 71.667C577.298 86.8095 594.738 102.822 589.993 119.704C584.44 136.036 569.363 147.609 544.764 154.422C520.549 161.76 492.224 180.025 459.79 209.219C454.57 213.129 450.906 213.485 448.797 210.289C429.694 189.358 429.898 157.32 449.412 114.176Z" stroke="white" stroke-width="0.499993"/>
<path d="M451.137 112.888C469.407 69.2206 498.183 53.7794 537.463 66.5645C577.711 79.9611 595.833 95.1958 591.828 112.269C586.991 128.828 572.433 141.048 548.153 148.929C524.28 157.318 496.777 176.803 465.645 207.384C460.599 211.519 456.954 212.035 454.709 208.933C434.711 188.857 433.52 156.842 451.137 112.888Z" stroke="white" stroke-width="0.499993"/>
<path d="M453.028 111.52C469.379 67.0971 497.455 50.4141 537.255 61.4711C578.05 73.0968 596.818 87.5252 593.56 104.756C589.449 121.511 575.437 134.355 551.524 143.289C528.038 152.712 501.41 173.379 471.638 205.291C466.778 209.642 463.159 210.317 460.78 207.316C439.927 188.134 437.343 156.201 453.028 111.52Z" stroke="white" stroke-width="0.499993"/>
<path d="M455.081 110.065C469.482 64.9712 496.805 47.0782 537.05 56.3865C578.312 66.2195 597.692 79.8144 595.188 97.1713C591.81 114.089 578.371 127.533 554.869 137.503C531.816 147.942 506.113 169.752 477.76 202.934C473.094 207.492 469.507 208.325 467.001 205.431C445.331 187.177 441.358 155.389 455.081 110.065Z" stroke="white" stroke-width="0.499993"/>
<path d="M457.294 108.517C469.716 62.8373 496.233 43.7685 536.846 51.3107C578.498 59.3328 598.452 72.0686 596.706 89.5181C594.07 106.567 581.229 120.585 558.183 131.571C535.607 143.007 510.879 165.918 483.998 200.306C479.535 205.064 475.988 206.052 473.358 203.271C450.913 185.98 445.558 154.396 457.294 108.517Z" stroke="white" stroke-width="0.499993"/>
<path d="M459.66 106.868C470.08 60.6896 495.741 40.4815 536.644 46.2437C578.607 52.4398 599.097 64.2924 598.114 81.8015C596.223 98.9493 584.005 113.514 561.46 125.496C539.403 137.906 515.697 161.876 490.341 197.403C486.089 202.352 482.589 203.494 479.839 200.83C456.662 184.536 449.936 153.215 459.66 106.868Z" stroke="white" stroke-width="0.499993"/>
</g>
<defs>
<clipPath id="clip0_228_38">
<rect width="265" height="202" fill="white" transform="translate(379 27)"/>
</clipPath>
</defs>
</svg>
